
<svg width="2087" height="1174" viewBox="0 0 2087 1174" fill="none" xmlns="http://www.w3.org/2000/svg">
<g clip-path="url(#clip0)">
<circle cx="1527" cy="157" r="108" stroke="#4542F4" stroke-opacity="0.32" stroke-width="40"/>
<circle cx="1311.5" cy="232.5" r="44.5" stroke="#4542F4" stroke-opacity="0.32" stroke-width="28"/>
<circle cx="1594.5" cy="332.5" r="29.5" stroke="#4542F4" stroke-opacity="0.32" stroke-width="21"/>
<path d="M2270.5 -277C2196.5 -197.167 1680 -55.5 1680 470.5C1680 834.5 2103.17 906.833 2221.5 974C2100 961.667 1756.8 1000.4 1356 1254" stroke="url(#paint0_linear)" stroke-width="40"/>
<rect x="1197.06" y="967.697" width="226" height="226" rx="59" transform="rotate(-37.8374 1197.06 967.697)" stroke="#4542F4" stroke-opacity="0.32" stroke-width="40"/>
<rect x="1362.45" y="725.992" width="112.108" height="112.108" rx="28" transform="rotate(-37.8374 1362.45 725.992)" stroke="#4542F4" stroke-opacity="0.32" stroke-width="32"/>
<rect x="1526.84" y="854.515" width="89.8957" height="89.8957" rx="32" transform="rotate(-37.8374 1526.84 854.515)" stroke="#4542F4" stroke-opacity="0.32" stroke-width="24"/>
<circle cx="1434.5" cy="482.5" r="6.5" fill="#4542F4" fill-opacity="0.32"/>
<circle cx="1229.5" cy="647.5" r="4.5" fill="#4542F4" fill-opacity="0.32"/>
<circle cx="1309.5" cy="611.5" r="3.5" fill="#4542F4" fill-opacity="0.32"/>
<circle cx="1145.5" cy="397.5" r="3.5" fill="#4542F4" fill-opacity="0.32"/>
<circle cx="1322.5" cy="693.5" r="3.5" fill="#4542F4" fill-opacity="0.32"/>
<circle cx="1478.5" cy="534.5" r="4.5" fill="#4542F4" fill-opacity="0.32"/>
<circle cx="1453" cy="360" r="5" fill="#4542F4" fill-opacity="0.32"/>
<circle cx="1269.5" cy="451.5" r="7.5" fill="#4542F4" fill-opacity="0.32"/>
<circle cx="1366.5" cy="442.5" r="3.5" fill="#4542F4" fill-opacity="0.32"/>
<circle cx="1341.5" cy="487.5" r="4.5" fill="#4542F4" fill-opacity="0.32"/>
<circle cx="1339.5" cy="335.5" r="6.5" fill="#4542F4" fill-opacity="0.32"/>
<circle cx="1296.5" cy="817.5" r="6.5" fill="#4542F4" fill-opacity="0.32"/>
<circle cx="1521" cy="925" r="4" fill="#4542F4" fill-opacity="0.32"/>
<circle cx="1618.5" cy="675.5" r="6.5" fill="#4542F4" fill-opacity="0.32"/>
<circle cx="209.5" cy="953.5" r="6.5" fill="#4542F4" fill-opacity="0.32"/>
<circle cx="4.5" cy="1124.5" r="4.5" fill="#4542F4" fill-opacity="0.32"/>
<circle cx="84.5" cy="1088.5" r="3.5" fill="#4542F4" fill-opacity="0.32"/>
<circle cx="97.5" cy="1170.5" r="3.5" fill="#4542F4" fill-opacity="0.32"/>
<circle cx="253.5" cy="1011.5" r="4.5" fill="#4542F4" fill-opacity="0.32"/>
<circle cx="228" cy="837" r="5" fill="#4542F4" fill-opacity="0.32"/>
<circle cx="44.5" cy="928.5" r="7.5" fill="#4542F4" fill-opacity="0.32"/>
<circle cx="141.5" cy="919.5" r="3.5" fill="#4542F4" fill-opacity="0.32"/>
<circle cx="116.5" cy="964.5" r="4.5" fill="#4542F4" fill-opacity="0.32"/>
<circle cx="114.5" cy="812.5" r="6.5" fill="#4542F4" fill-opacity="0.32"/>
<path d="M24.5 117C28.3333 97.8333 45.2 59.5 82 59.5C118.8 59.5 136.667 35.1667 141 23" stroke="#4542F4" stroke-opacity="0.1" stroke-width="4" stroke-linecap="round" stroke-linejoin="round"/>
<path d="M46 139C49.8333 119.833 66.7 81.5 103.5 81.5C140.3 81.5 158.167 57.1667 162.5 45" stroke="#4542F4" stroke-opacity="0.1" stroke-width="4" stroke-linecap="round" stroke-linejoin="round"/>
<path d="M70 164C73.8333 144.833 90.7 106.5 127.5 106.5C164.3 106.5 182.167 82.1667 186.5 70" stroke="#4542F4" stroke-opacity="0.1" stroke-width="4" stroke-linecap="round" stroke-linejoin="round"/>
<path d="M587.06 -19.9486C578.654 -15.71 571.441 -9.4384 566.076 -1.70356C560.71 6.03127 557.362 14.9842 556.336 24.3417C555.31 33.6992 556.639 43.1649 560.201 51.8786C563.763 60.5923 569.445 68.278 576.732 74.2372C584.02 80.1965 592.68 84.2406 601.928 86.0021C611.175 87.7635 620.716 87.1865 629.684 84.3234C638.651 81.4603 646.762 76.402 653.277 69.6079C659.793 62.8138 664.508 54.4993 666.994 45.4198L650.646 40.9438C648.906 47.2995 645.605 53.1196 641.044 57.8755C636.483 62.6314 630.806 66.1722 624.529 68.1764C618.251 70.1805 611.572 70.5844 605.099 69.3514C598.626 68.1184 592.564 65.2876 587.463 61.1161C582.362 56.9446 578.384 51.5646 575.89 45.465C573.397 39.3654 572.467 32.7395 573.185 26.1892C573.904 19.6389 576.247 13.3719 580.003 7.95749C583.759 2.54311 588.808 -1.84702 594.692 -4.81405L587.06 -19.9486Z" fill="#4542F4" fill-opacity="0.09"/>
</g>
<defs>
<linearGradient id="paint0_linear" x1="1356" y1="612.5" x2="2126" y2="770" gradientUnits="userSpaceOnUse">
<stop stop-color="#4542F4" stop-opacity="0.32"/>
<stop offset="1" stop-color="#4542F4" stop-opacity="0.59"/>
</linearGradient>
<clipPath id="clip0">
<rect width="2087" height="1174" fill="white"/>
</clipPath>
</defs>
</svg>
